<svg xmlns="http://www.w3.org/2000/svg" version="1.1" xmlns:xlink="http://www.w3.org/1999/xlink" xmlns:svgjs="http://svgjs.com/svgjs" width="900" height="700" preserveAspectRatio="none" viewBox="0 0 900 700"><g mask="url(&quot;#SvgjsMask1016&quot;)" fill="none"><path d="M608.3 683.54a58 58 0 1 0-114.73-17.13z" stroke="rgba(6, 182, 212, 1)"></path><path d="M220.97 336.2 a60.3 60.3 0 1 0 120.6 0 a60.3 60.3 0 1 0 -120.6 0z" stroke="rgba(250, 204, 21, 1)"></path><path d="M291.53 452.59L328.95 452.59L328.95 501.66L291.53 501.66z" stroke="rgba(192, 38, 211, 1)"></path><path d="M810.87 436.12 a0.36 0.36 0 1 0 0.72 0 a0.36 0.36 0 1 0 -0.72 0z" stroke="rgba(6, 182, 212, 1)"></path><path d="M509.78 306.72L532.23 306.72L532.23 370.23L509.78 370.23z" fill="rgba(250, 204, 21, 1)"></path><path d="M896.83 510.33 a0.81 0.81 0 1 0 1.62 0 a0.81 0.81 0 1 0 -1.62 0z" stroke="rgba(6, 182, 212, 1)"></path><path d="M106.91 654.12a18.09 18.09 0 1 0 4.63-35.88z" fill="rgba(225, 29, 72, 1)"></path><path d="M729.66 497.34a50.15 50.15 0 1 0-51.67-85.97z" fill="rgba(192, 38, 211, 1)"></path><path d="M296.96 153.88L301.57 153.88L301.57 189.41L296.96 189.41z" stroke="rgba(192, 38, 211, 1)"></path><path d="M205.43 389.55L236.23 389.55L236.23 448.2L205.43 448.2z" stroke="rgba(250, 204, 21, 1)"></path><path d="M762.49 214.47 a61.62 61.62 0 1 0 123.24 0 a61.62 61.62 0 1 0 -123.24 0z" stroke="rgba(225, 29, 72, 1)"></path><path d="M316.18 519.64a31.42 31.42 0 1 0 62.27-8.44z" stroke="rgba(6, 182, 212, 1)"></path><path d="M258.52 270.5L264.08 270.5L264.08 276.06L258.52 276.06z" fill="rgba(6, 182, 212, 1)"></path><path d="M409.96 198.59 a41.93 41.93 0 1 0 83.86 0 a41.93 41.93 0 1 0 -83.86 0z" fill="rgba(225, 29, 72, 1)"></path><path d="M510.3 510.6L512.37 510.6L512.37 512.67L510.3 512.67z" stroke="rgba(250, 204, 21, 1)"></path><path d="M516.74 666.96 a24.73 24.73 0 1 0 49.46 0 a24.73 24.73 0 1 0 -49.46 0z" stroke="rgba(6, 182, 212, 1)"></path><path d="M59.79 250.81 a65.15 65.15 0 1 0 130.3 0 a65.15 65.15 0 1 0 -130.3 0z" stroke="rgba(250, 204, 21, 1)"></path></g><defs><mask id="SvgjsMask1016"><rect width="900" height="700" fill="#ffffff"></rect></mask></defs></svg>