<svg xmlns="http://www.w3.org/2000/svg" version="1.1" xmlns:xlink="http://www.w3.org/1999/xlink" xmlns:svgjs="http://svgjs.com/svgjs" width="1440" height="560" preserveAspectRatio="none" viewBox="0 0 1440 560"><g mask="url(&quot;#SvgjsMask1053&quot;)" fill="none"><rect width="1440" height="560" x="0" y="0" fill="url(#SvgjsLinearGradient1054)"></rect><g transform="translate(0, 0)" stroke-linecap="round"><path d="M170 167.06 L170 392.94" stroke-width="15" stroke="#3a7cc3"></path><path d="M190 223.59 L190 336.42" stroke-width="15" stroke="#3a7cc3"></path><path d="M210 117.22 L210 442.77" stroke-width="15" stroke="#dd1133"></path><path d="M230 105.12 L230 454.88" stroke-width="15" stroke="#dd1133"></path><path d="M250 218.59 L250 341.42" stroke-width="15" stroke="#dd1133"></path><path d="M270 142.54 L270 417.46" stroke-width="15" stroke="#dd1133"></path><path d="M290 222.63 L290 337.37" stroke-width="15" stroke="#dd1133"></path><path d="M310 74.94 L310 485.06" stroke-width="15" stroke="#3a7cc3"></path><path d="M330 123.31 L330 436.69" stroke-width="15" stroke="#3a7cc3"></path><path d="M350 195.72 L350 364.28" stroke-width="15" stroke="#3a7cc3"></path><path d="M370 105.17 L370 454.83" stroke-width="15" stroke="#dd1133"></path><path d="M390 201.45 L390 358.55" stroke-width="15" stroke="#dd1133"></path><path d="M410 141.88 L410 418.12" stroke-width="15" stroke="#3a7cc3"></path><path d="M430 252.21 L430 307.79" stroke-width="15" stroke="#3a7cc3"></path><path d="M450 208.22 L450 351.77" stroke-width="15" stroke="#dd1133"></path><path d="M470 114.21 L470 445.79" stroke-width="15" stroke="#dd1133"></path><path d="M490 89.82 L490 470.18" stroke-width="15" stroke="#3a7cc3"></path><path d="M510 254.72 L510 305.27" stroke-width="15" stroke="#3a7cc3"></path><path d="M530 191.38 L530 368.63" stroke-width="15" stroke="#3a7cc3"></path><path d="M550 246.69 L550 313.31" stroke-width="15" stroke="#3a7cc3"></path><path d="M570 241.24 L570 318.76" stroke-width="15" stroke="#3a7cc3"></path><path d="M590 255.94 L590 304.06" stroke-width="15" stroke="#dd1133"></path><path d="M610 196.71 L610 363.29" stroke-width="15" stroke="#3a7cc3"></path><path d="M630 79.55 L630 480.45" stroke-width="15" stroke="#3a7cc3"></path><path d="M650 199.79 L650 360.21" stroke-width="15" stroke="#3a7cc3"></path><path d="M670 136.47 L670 423.53" stroke-width="15" stroke="#dd1133"></path><path d="M690 85.07 L690 474.93" stroke-width="15" stroke="#3a7cc3"></path><path d="M710 201.01 L710 358.99" stroke-width="15" stroke="#3a7cc3"></path><path d="M730 258.13 L730 301.87" stroke-width="15" stroke="#dd1133"></path><path d="M750 146.02 L750 413.98" stroke-width="15" stroke="#dd1133"></path><path d="M770 218.74 L770 341.26" stroke-width="15" stroke="#3a7cc3"></path><path d="M790 163.81 L790 396.19" stroke-width="15" stroke="#3a7cc3"></path><path d="M810 89.43 L810 470.57" stroke-width="15" stroke="#3a7cc3"></path><path d="M830 248.07 L830 311.93" stroke-width="15" stroke="#3a7cc3"></path><path d="M850 80.01 L850 479.99" stroke-width="15" stroke="#3a7cc3"></path><path d="M870 150.04 L870 409.96" stroke-width="15" stroke="#3a7cc3"></path><path d="M890 255.28 L890 304.73" stroke-width="15" stroke="#dd1133"></path><path d="M910 82.1 L910 477.9" stroke-width="15" stroke="#3a7cc3"></path><path d="M930 211.32 L930 348.68" stroke-width="15" stroke="#3a7cc3"></path><path d="M950 82.16 L950 477.84" stroke-width="15" stroke="#3a7cc3"></path><path d="M970 130 L970 430" stroke-width="15" stroke="#3a7cc3"></path><path d="M990 168.03 L990 391.97" stroke-width="15" stroke="#dd1133"></path><path d="M1010 184.07 L1010 375.93" stroke-width="15" stroke="#dd1133"></path><path d="M1030 256.75 L1030 303.25" stroke-width="15" stroke="#3a7cc3"></path><path d="M1050 201.85 L1050 358.15" stroke-width="15" stroke="#3a7cc3"></path><path d="M1070 145.13 L1070 414.87" stroke-width="15" stroke="#dd1133"></path><path d="M1090 105.36 L1090 454.64" stroke-width="15" stroke="#dd1133"></path><path d="M1110 151.16 L1110 408.85" stroke-width="15" stroke="#3a7cc3"></path><path d="M1130 88.74 L1130 471.26" stroke-width="15" stroke="#dd1133"></path><path d="M1150 247.75 L1150 312.25" stroke-width="15" stroke="#dd1133"></path><path d="M1170 171.37 L1170 388.63" stroke-width="15" stroke="#3a7cc3"></path><path d="M1190 116.78 L1190 443.22" stroke-width="15" stroke="#dd1133"></path><path d="M1210 176.35 L1210 383.65" stroke-width="15" stroke="#3a7cc3"></path><path d="M1230 225.44 L1230 334.56" stroke-width="15" stroke="#3a7cc3"></path><path d="M1250 156.24 L1250 403.76" stroke-width="15" stroke="#3a7cc3"></path><path d="M1270 139.94 L1270 420.06" stroke-width="15" stroke="#dd1133"></path></g></g><defs><mask id="SvgjsMask1053"><rect width="1440" height="560" fill="#ffffff"></rect></mask><linearGradient x1="15.28%" y1="-39.29%" x2="84.72%" y2="139.29%" gradientUnits="userSpaceOnUse" id="SvgjsLinearGradient1054"><stop stop-color="#0e2a47" offset="0"></stop><stop stop-color="#00459e" offset="1"></stop></linearGradient></defs></svg>